<svg xmlns="http://www.w3.org/2000/svg" width="1024" height="1024" viewBox="0 0 56 56">
  <rect x="0" y="0" width="56" height="56" rx="15" ry="15" fill="#F7C92E"/>
  <g transform="translate(7 7) scale(1.05)">
    <g fill="none" stroke="#161512" stroke-width="2.6" stroke-linecap="round" stroke-linejoin="round">
      <path d="M7.5 17 L11 17 L14 22 L31 22"/>
      <path d="M14 22 L16.5 29 L28 29 L31 22"/>
      <path d="M18 29 L18.5 30.4 M27 29 L26.5 30.4"/>
    </g>
    <circle cx="18.5" cy="32" r="2" fill="#161512"/>
    <circle cx="26" cy="32" r="2" fill="#161512"/>
    <g transform="translate(28.5 9.5) rotate(-12) scale(1.25) translate(-28.5 -9.5)">
      <ellipse cx="27" cy="6.4" rx="2.4" ry="1.5" fill="#FFFFFF" fill-opacity="0.9" stroke="#161512" stroke-width="0.7" transform="rotate(-25 27 6.4)"/>
      <ellipse cx="29.6" cy="6.6" rx="2.2" ry="1.4" fill="#FFFFFF" fill-opacity="0.9" stroke="#161512" stroke-width="0.7" transform="rotate(18 29.6 6.6)"/>
      <ellipse cx="28.4" cy="9.6" rx="3.7" ry="2.6" fill="#161512"/>
      <path d="M27.5 7.3 L27 11.9" stroke="#F7C92E" stroke-width="1" stroke-linecap="round"/>
      <path d="M29.4 7.4 L28.9 11.7" stroke="#F7C92E" stroke-width="1" stroke-linecap="round"/>
      <circle cx="31.6" cy="9.9" r="1.5" fill="#161512"/>
      <circle cx="32.2" cy="9.4" r="0.45" fill="#FFFFFF"/>
      <path d="M31.9 8.6 Q32.7 7 33.7 6.8" stroke="#161512" stroke-width="0.7" fill="none" stroke-linecap="round"/>
      <circle cx="33.8" cy="6.7" r="0.55" fill="#161512"/>
      <path d="M24.8 9.6 L23.2 8.9 L23.5 10.6 Z" fill="#161512"/>
    </g>
    <path d="M13 16 Q16 9 21 8.6" fill="none" stroke="#161512" stroke-width="2.2" stroke-dasharray="0.1 3.4" stroke-linecap="round" opacity="0.55"/>
  </g>
</svg>
